ffmpeg version N-84348-gdb7a05d Copyright (c) 2000-2017 the FFmpeg developers
  built with gcc 6.3.0 (GCC)
  configuration: --enable-gpl --enable-version3 --enable-cuda --enable-cuvid --enable-d3d11va --enable-dxva2 --enable-libmfx --enable-nvenc --enable-avisynth --enable-bzlib --enable-fontconfig --enable-frei0r --enable-gnutls --enable-iconv --enable-libass --enable-libbluray --enable-libbs2b --enable-libcaca --enable-libfreetype --enable-libgme --enable-libgsm --enable-libilbc --enable-libmodplug --enable-libmp3lame --enable-libopencore-amrnb --enable-libopencore-amrwb --enable-libopenh264 --enable-libopenjpeg --enable-libopus --enable-librtmp --enable-libsnappy --enable-libsoxr --enable-libspeex --enable-libtheora --enable-libtwolame --enable-libvidstab --enable-libvo-amrwbenc --enable-libvorbis --enable-libvpx --enable-libwavpack --enable-libwebp --enable-libx264 --enable-libx265 --enable-libxavs --enable-libxvid --enable-libzimg --enable-lzma --enable-zlib
  libavutil      55. 50.100 / 55. 50.100
  libavcodec     57. 83.101 / 57. 83.101
  libavformat    57. 66.105 / 57. 66.105
  libavdevice    57.  3.100 / 57.  3.100
  libavfilter     6. 78.100 /  6. 78.100
  libswscale      4.  3.101 /  4.  3.101
  libswresample   2.  4.100 /  2.  4.100
  libpostproc    54.  2.100 / 54.  2.100
Input #0, image2pipe, from 'pipe:':
  Duration: N/A, bitrate: N/A
    Stream #0:0: Video: ppm, rgb24, 320x240, 20 fps, 20 tbr, 20 tbn, 20 tbc
Stream mapping:
  Stream #0:0 -> #0:0 (ppm (native) -> h264 (libx264))
[libx264 @ 00000000004f3ce0] using cpu capabilities: MMX2 SSE2Fast SSSE3 SSE4.2 AVX FMA3 AVX2 LZCNT BMI2
[libx264 @ 00000000004f3ce0] profile High, level 1.3
[libx264 @ 00000000004f3ce0] 264 - core 148 r2762 90a61ec - H.264/MPEG-4 AVC codec - Copyleft 2003-2017 - http://www.videolan.org/x264.html - options: cabac=1 ref=3 deblock=1:0:0 analyse=0x3:0x113 me=hex subme=7 psy=1 psy_rd=1.00:0.00 mixed_ref=1 me_range=16 chroma_me=1 trellis=1 8x8dct=1 cqm=0 deadzone=21,11 fast_pskip=1 chroma_qp_offset=-2 threads=6 lookahead_threads=1 sliced_threads=0 nr=0 decimate=1 interlaced=0 bluray_compat=0 constrained_intra=0 bframes=3 b_pyramid=2 b_adapt=1 b_bias=0 direct=1 weightb=1 open_gop=0 weightp=2 keyint=250 keyint_min=20 scenecut=40 intra_refresh=0 rc_lookahead=40 rc=abr mbtree=1 bitrate=400 ratetol=1.0 qcomp=0.60 qpmin=0 qpmax=69 qpstep=4 ip_ratio=1.40 aq=1:1.00
Output #0, mp4, to '.\mission_records\b18d3482-57c8-41e9-9a86-0b03800e12d6\video.mp4':
  Metadata:
    encoder         : Lavf57.66.105
    Stream #0:0: Video: h264 (libx264) ([33][0][0][0] / 0x0021), yuv420p, 320x240, q=-1--1, 400 kb/s, 20 fps, 10240 tbn, 20 tbc
    Metadata:
      encoder         : Lavc57.83.101 libx264
    Side data:
      cpb: bitrate max/min/avg: 0/0/400000 buffer size: 0 vbv_delay: -1
frame=   33 fps=0.0 q=0.0 size=       0kB time=00:00:00.00 bitrate=N/A speed=   0x    frame=   43 fps= 41 q=0.0 size=       0kB time=00:00:00.00 bitrate=N/A speed=   0x    frame=   52 fps= 33 q=28.0 size=       5kB time=-00:00:00.04 bitrate=N/A speed=N/A    frame=   62 fps= 30 q=22.0 size=      20kB time=00:00:00.45 bitrate= 361.9kbits/s speed=0.215x    frame=   72 fps= 28 q=24.0 size=      51kB time=00:00:00.95 bitrate= 435.6kbits/s speed=0.365x    frame=   81 fps= 26 q=24.0 size=      78kB time=00:00:01.40 bitrate= 454.4kbits/s speed=0.45x    frame=   91 fps= 25 q=24.0 size=     102kB time=00:00:01.90 bitrate= 439.2kbits/s speed=0.525x    frame=  101 fps= 24 q=24.0 size=     126kB time=00:00:02.40 bitrate= 429.0kbits/s speed=0.579x    frame=  111 fps= 24 q=24.0 size=     150kB time=00:00:02.90 bitrate= 424.1kbits/s speed=0.623x    frame=  121 fps= 23 q=24.0 size=     173kB time=00:00:03.40 bitrate= 417.2kbits/s speed=0.656x    frame=  130 fps= 23 q=24.0 size=     199kB time=00:00:03.85 bitrate= 422.9kbits/s speed=0.676x    frame=  140 fps= 22 q=21.0 size=     224kB time=00:00:04.35 bitrate= 421.2kbits/s speed=0.698x    frame=  149 fps= 22 q=24.0 size=     246kB time=00:00:04.80 bitrate= 419.2kbits/s speed=0.712x    frame=  159 fps= 22 q=24.0 size=     271kB time=00:00:05.30 bitrate= 418.9kbits/s speed=0.731x    frame=  169 fps= 22 q=25.0 size=     297kB time=00:00:05.80 bitrate= 419.9kbits/s speed=0.746x    frame=  179 fps= 22 q=25.0 size=     322kB time=00:00:06.30 bitrate= 419.3kbits/s speed=0.761x    frame=  186 fps= 20 q=-1.0 Lsize=     466kB time=00:00:09.15 bitrate= 417.4kbits/s speed=   1x    
video:463kB audio:0kB subtitle:0kB other streams:0kB global headers:0kB muxing overhead: 0.639639%
[libx264 @ 00000000004f3ce0] frame I:7     Avg QP:16.83  size:  5350
[libx264 @ 00000000004f3ce0] frame P:56    Avg QP:19.30  size:  3313
[libx264 @ 00000000004f3ce0] frame B:123   Avg QP:19.87  size:  2038
[libx264 @ 00000000004f3ce0] consecutive B-frames: 10.2%  3.2%  4.8% 81.7%
[libx264 @ 00000000004f3ce0] mb I  I16..4: 52.6% 38.7%  8.7%
[libx264 @ 00000000004f3ce0] mb P  I16..4: 15.4% 16.9%  5.7%  P16..4: 15.6%  9.5%  7.1%  0.0%  0.0%    skip:29.8%
[libx264 @ 00000000004f3ce0] mb B  I16..4:  3.5%  1.6%  1.0%  B16..8: 27.0% 14.8% 11.5%  direct: 2.5%  skip:38.1%  L0:51.3% L1:39.1% BI: 9.6%
[libx264 @ 00000000004f3ce0] final ratefactor: 19.82
[libx264 @ 00000000004f3ce0] 8x8 transform intra:39.7% inter:47.0%
[libx264 @ 00000000004f3ce0] coded y,uvDC,uvAC intra: 52.0% 16.3% 2.3% inter: 23.5% 6.3% 0.1%
[libx264 @ 00000000004f3ce0] i16 v,h,dc,p:  6% 89%  3%  2%
[libx264 @ 00000000004f3ce0] i8 v,h,dc,ddl,ddr,vr,hd,vl,hu:  4% 20% 36%  5%  7%  4% 10%  4% 10%
[libx264 @ 00000000004f3ce0] i4 v,h,dc,ddl,ddr,vr,hd,vl,hu:  6% 21% 22%  6% 10%  5% 13%  4% 13%
[libx264 @ 00000000004f3ce0] i8c dc,h,v,p: 53% 43%  3%  1%
[libx264 @ 00000000004f3ce0] Weighted P-Frames: Y:0.0% UV:0.0%
[libx264 @ 00000000004f3ce0] ref P L0: 65.1%  6.2% 19.8%  8.9%
[libx264 @ 00000000004f3ce0] ref B L0: 88.7%  8.0%  3.3%
[libx264 @ 00000000004f3ce0] ref B L1: 97.5%  2.5%
[libx264 @ 00000000004f3ce0] kb/s:407.42
.92
